<svg width="75" height="35" viewBox="0 0 75 35" fill="none" xmlns="http://www.w3.org/2000/svg">
<rect x="0.5" y="0.5" width="74" height="34" rx="4.5" fill="white" stroke="#DBDBDB"/>
<path d="M48.791 20.7305H44.0557V17.9629H43.0781V20.7305H38.457V21.5557H48.791V20.7305ZM38.8633 17.2646L39.3076 18.0898C41.0342 17.7344 42.8306 16.5664 43.5732 14.9478C44.3032 16.5728 46.1187 17.7344 47.8389 18.0898L48.2832 17.2646C46.3154 16.9282 44.0874 15.2651 44.0811 13.3799V12.5166H43.04V13.3799C43.0337 15.2778 40.8374 16.9282 38.8633 17.2646ZM56.0908 13.0117H53.4375V11.6533H52.4473V13.0117H49.7051V13.8242H56.0908V13.0117ZM50.3779 16.4902C50.3652 17.7534 51.4062 18.5786 52.9297 18.585C54.4404 18.5786 55.5005 17.7534 55.5068 16.4902C55.5005 15.2334 54.4404 14.4019 52.9297 14.4082C51.4062 14.4019 50.3652 15.2334 50.3779 16.4902ZM51.3047 16.4902C51.2983 15.6968 51.9458 15.1699 52.9297 15.1572C53.9009 15.1699 54.5674 15.6968 54.5801 16.4902C54.5674 17.2837 53.9009 17.8169 52.9297 17.8105C51.9458 17.8169 51.2983 17.2837 51.3047 16.4902ZM51.5332 21.0859C51.5332 22.2983 52.9614 23.0029 55.3291 23.0029C57.6841 23.0029 59.1123 22.2983 59.1123 21.0859C59.1123 19.8545 57.6841 19.1562 55.3291 19.1562C52.9614 19.1562 51.5332 19.8545 51.5332 21.0859ZM52.5615 21.0859C52.5679 20.3496 53.6152 19.937 55.3291 19.9307C57.0176 19.937 58.0586 20.3496 58.0586 21.0859C58.0586 21.8032 57.0176 22.2349 55.3291 22.2285C53.6152 22.2349 52.5679 21.8032 52.5615 21.0859ZM56.0781 17.4805H58.0459V19.042H59.0488V11.7422H58.0459V14.459H56.0908V15.2842H58.0459V16.6553H56.0781V17.4805Z" fill="#777777"/>
<rect x="14" y="9" width="16" height="16" rx="2" fill="#DBDBDB"/>
</svg>
