<svg width="75" height="35" viewBox="0 0 75 35" fill="none" xmlns="http://www.w3.org/2000/svg">
<rect x="0.5" y="0.5" width="74" height="34" rx="4.5" fill="white" stroke="#DBDBDB"/>
<path d="M43.8633 22H49.8301V20.9844H45.4502V20.9082L47.5576 18.7373C49.1826 17.0615 49.6587 16.2617 49.665 15.2334C49.6587 13.8052 48.478 12.6816 46.8086 12.6816C45.1455 12.6816 43.8887 13.7734 43.9014 15.3984H44.9805C44.9868 14.3701 45.6724 13.6782 46.7705 13.6719C47.8052 13.6782 48.5923 14.2876 48.5986 15.2334C48.5923 16.084 48.0718 16.7061 46.9863 17.8613L43.8506 21.1621L43.8633 22ZM52.2803 20.832C52.731 20.8257 53.0991 20.4575 53.0928 20.0068C53.0991 19.5625 52.731 19.1943 52.2803 19.1943C51.8359 19.1943 51.4551 19.5625 51.4678 20.0068C51.4551 20.4575 51.8359 20.8257 52.2803 20.832ZM51.4678 15.3604C51.4551 15.811 51.8359 16.1792 52.2803 16.1855C52.731 16.1792 53.0991 15.811 53.0928 15.3604C53.0991 14.916 52.731 14.5479 52.2803 14.5479C51.8359 14.5479 51.4551 14.916 51.4678 15.3604ZM57.9678 22.127C59.8022 22.127 61.1733 21.0098 61.167 19.499C61.1733 18.3311 60.4497 17.4741 59.25 17.29V17.2266C60.2148 16.9536 60.8242 16.1919 60.8115 15.1445C60.8242 13.8306 59.7578 12.6816 58.0059 12.6816C56.3745 12.6816 55.0161 13.6592 54.959 15.1191H56.0635C56.1143 14.2178 57.0093 13.6782 57.9932 13.6719C59.0405 13.6782 59.7134 14.2876 59.707 15.208C59.7134 16.1538 58.9326 16.7822 57.8154 16.7822H57.0664V17.7852H57.8154C59.2437 17.7915 60.0435 18.4961 60.0498 19.499C60.0435 20.4575 59.1675 21.1113 57.9551 21.1113C56.8569 21.1113 55.9873 20.5654 55.9238 19.6895H54.7686C54.8257 21.1494 56.1396 22.127 57.9678 22.127Z" fill="#777777"/>
<rect width="15" height="16" rx="2" transform="matrix(-1 0 0 1 37 9)" fill="#DBDBDB"/>
<rect width="8" height="16" rx="2" transform="matrix(-1 0 0 1 19 9)" fill="#DBDBDB"/>
</svg>
