<svg width="75" height="35" viewBox="0 0 75 35" fill="none" xmlns="http://www.w3.org/2000/svg">
<rect x="0.5" y="0.5" width="74" height="34" rx="4.5" fill="white" stroke="#DBDBDB"/>
<path d="M49.1133 12.8086H47.958L45.6729 14.332V15.4873L47.9072 14.002H47.958V22H49.1133V12.8086ZM52.3506 20.832C52.8013 20.8257 53.1694 20.4575 53.1631 20.0068C53.1694 19.5625 52.8013 19.1943 52.3506 19.1943C51.9062 19.1943 51.5254 19.5625 51.5381 20.0068C51.5254 20.4575 51.9062 20.8257 52.3506 20.832ZM51.5381 15.3604C51.5254 15.811 51.9062 16.1792 52.3506 16.1855C52.8013 16.1792 53.1694 15.811 53.1631 15.3604C53.1694 14.916 52.8013 14.5479 52.3506 14.5479C51.9062 14.5479 51.5254 14.916 51.5381 15.3604ZM58.1143 12.8086H56.959L54.6738 14.332V15.4873L56.9082 14.002H56.959V22H58.1143V12.8086Z" fill="#777777"/>
<rect x="11" y="9" width="12" height="16" rx="2" fill="#DBDBDB"/>
<rect x="25" y="9" width="12" height="16" rx="2" fill="#DBDBDB"/>
</svg>
