<svg width="75" height="35" viewBox="0 0 75 35" fill="none" xmlns="http://www.w3.org/2000/svg">
<rect x="0.5" y="0.5" width="74" height="34" rx="4.5" fill="white" stroke="#DBDBDB"/>
<path d="M50.1055 11.7422H49.1533V16.2871H47.4902V11.9961H46.5762V22.4443H47.4902V17.1123H49.1533V23.0283H50.1055V11.7422ZM40.876 20.2354H41.5996C43.3325 20.229 44.4814 20.1846 45.8398 19.9053L45.751 19.0674C44.4941 19.3213 43.4214 19.3784 41.8662 19.3848V13.9512H45.1035V13.126H40.876V20.2354ZM58.0908 13.0117H55.4375V11.6533H54.4473V13.0117H51.7051V13.8242H58.0908V13.0117ZM52.3779 16.4902C52.3652 17.7534 53.4062 18.5786 54.9297 18.585C56.4404 18.5786 57.5005 17.7534 57.5068 16.4902C57.5005 15.2334 56.4404 14.4019 54.9297 14.4082C53.4062 14.4019 52.3652 15.2334 52.3779 16.4902ZM53.3047 16.4902C53.2983 15.6968 53.9458 15.1699 54.9297 15.1572C55.9009 15.1699 56.5674 15.6968 56.5801 16.4902C56.5674 17.2837 55.9009 17.8169 54.9297 17.8105C53.9458 17.8169 53.2983 17.2837 53.3047 16.4902ZM53.5332 21.0859C53.5332 22.2983 54.9614 23.0029 57.3291 23.0029C59.6841 23.0029 61.1123 22.2983 61.1123 21.0859C61.1123 19.8545 59.6841 19.1562 57.3291 19.1562C54.9614 19.1562 53.5332 19.8545 53.5332 21.0859ZM54.5615 21.0859C54.5679 20.3496 55.6152 19.937 57.3291 19.9307C59.0176 19.937 60.0586 20.3496 60.0586 21.0859C60.0586 21.8032 59.0176 22.2349 57.3291 22.2285C55.6152 22.2349 54.5679 21.8032 54.5615 21.0859ZM58.0781 17.4805H60.0459V19.042H61.0488V11.7422H60.0459V14.459H58.0908V15.2842H60.0459V16.6553H58.0781V17.4805Z" fill="#777777"/>
<rect x="8" y="9" width="26" height="16" rx="2" fill="#DBDBDB"/>
</svg>
