<svg width="75" height="35" viewBox="0 0 75 35" fill="none" xmlns="http://www.w3.org/2000/svg">
<rect x="0.5" y="0.5" width="74" height="34" rx="4.5" fill="white" stroke="#DBDBDB"/>
<path d="M46.0371 22.127C47.8716 22.127 49.2427 21.0098 49.2363 19.499C49.2427 18.3311 48.519 17.4741 47.3193 17.29V17.2266C48.2842 16.9536 48.8936 16.1919 48.8809 15.1445C48.8936 13.8306 47.8271 12.6816 46.0752 12.6816C44.4438 12.6816 43.0854 13.6592 43.0283 15.1191H44.1328C44.1836 14.2178 45.0786 13.6782 46.0625 13.6719C47.1099 13.6782 47.7827 14.2876 47.7764 15.208C47.7827 16.1538 47.002 16.7822 45.8848 16.7822H45.1357V17.7852H45.8848C47.313 17.7915 48.1128 18.4961 48.1191 19.499C48.1128 20.4575 47.2368 21.1113 46.0244 21.1113C44.9263 21.1113 44.0566 20.5654 43.9932 19.6895H42.8379C42.895 21.1494 44.209 22.127 46.0371 22.127ZM51.6738 20.832C52.1245 20.8257 52.4927 20.4575 52.4863 20.0068C52.4927 19.5625 52.1245 19.1943 51.6738 19.1943C51.2295 19.1943 50.8486 19.5625 50.8613 20.0068C50.8486 20.4575 51.2295 20.8257 51.6738 20.832ZM50.8613 15.3604C50.8486 15.811 51.2295 16.1792 51.6738 16.1855C52.1245 16.1792 52.4927 15.811 52.4863 15.3604C52.4927 14.916 52.1245 14.5479 51.6738 14.5479C51.2295 14.5479 50.8486 14.916 50.8613 15.3604ZM54.1875 22H60.1543V20.9844H55.7744V20.9082L57.8818 18.7373C59.5068 17.0615 59.9829 16.2617 59.9893 15.2334C59.9829 13.8052 58.8022 12.6816 57.1328 12.6816C55.4697 12.6816 54.2129 13.7734 54.2256 15.3984H55.3047C55.311 14.3701 55.9966 13.6782 57.0947 13.6719C58.1294 13.6782 58.9165 14.2876 58.9229 15.2334C58.9165 16.084 58.396 16.7061 57.3105 17.8613L54.1748 21.1621L54.1875 22Z" fill="#777777"/>
<rect x="10" y="9" width="15" height="16" rx="2" fill="#DBDBDB"/>
<rect x="28" y="9" width="8" height="16" rx="2" fill="#DBDBDB"/>
</svg>
