<svg width="83" height="24" viewBox="0 0 83 24" fill="none" xmlns="http://www.w3.org/2000/svg">
<g clip-path="url(#clip0_751_326)">
<path d="M23.7951 0.00689697L12.7533 23.7882H23.7951V0.00689697Z" fill="#CD3325"/>
<path d="M1.8288 0.00689697L11.9113 21.7731L22.0008 0.00689697H1.8288Z" fill="#CD3325"/>
<path d="M0 23.8089H11.0418L11.0004 23.7399L0 0.0206909V23.8089Z" fill="#CD3325"/>
<path d="M81.1642 0.00688756V0.0759242L71.0403 21.7938L60.8818 0.00688756H59.0806L59.1772 0.193232L66.7063 16.3212L64.1391 21.7869L53.9807 0.00688756H52.1794L52.2761 0.193232L63.3179 23.8089H65.0225V23.7399L67.5759 18.2673L70.1638 23.7882H71.8684V23.7192L82.9102 -0.0137939L81.1642 0.00688756Z" fill="black"/>
<path d="M28.3913 0.00689697H26.7213V23.8089H28.3913V0.00689697Z" fill="black"/>
<path d="M31.414 0V23.8158H50.9718V22.2286H33.0841V17.6945H50.3369V16.1073H33.0841V1.61489H50.4611V0.0276315L31.414 0Z" fill="black"/>
</g>
<defs>
<clipPath id="clip0_751_326">
<rect width="83" height="23.8158" fill="white"/>
</clipPath>
</defs>
</svg>
