<svg width="182" height="52" viewBox="0 0 182 52" fill="none" xmlns="http://www.w3.org/2000/svg">
<g clip-path="url(#clip0_796_290)">
<path d="M52.4458 0.015625L28.4023 51.7992H52.4458V0.015625Z" fill="#CD3325"/>
<path d="M4.61328 0.015625L26.5679 47.4113L48.5376 0.015625H4.61328Z" fill="#CD3325"/>
<path d="M0.632812 51.8434H24.6762L24.5861 51.6932L0.632812 0.0449219V51.8434Z" fill="#CD3325"/>
<path d="M177.368 0.0157368V0.166063L155.323 47.4564L133.203 0.0157368H129.281L129.491 0.421499L145.886 35.5399L140.296 47.4414L118.176 0.0157368H114.254L114.464 0.421499L138.508 51.8443H142.219V51.6941L147.779 39.7776L153.415 51.7993H157.126V51.6489L181.17 -0.0292969L177.368 0.0157368Z" fill="black"/>
<path d="M62.453 0.015625H58.8164V51.8442H62.453V0.015625Z" fill="black"/>
<path d="M69.0352 0V51.8587H111.622V48.4025H72.6717V38.5296H110.24V35.0734H72.6717V3.51639H110.51V0.0601673L69.0352 0Z" fill="black"/>
</g>
<defs>
<clipPath id="clip0_796_290">
<rect width="180.731" height="51.8587" fill="white" transform="translate(0.632812)"/>
</clipPath>
</defs>
</svg>
